<svg xmlns="http://www.w3.org/2000/svg" viewBox="0 0 3388.79 1565.24"><defs><style>.cls-1{fill:#f5eb26;}.cls-2{fill:#fff200;}</style></defs><title>ss-logo-text</title><g id="Layer_2" data-name="Layer 2"><g id="Layer_2-2" data-name="Layer 2"><path class="cls-1" d="M328.94,424.56c-33.2-12.76-63.94-26.68-89.76-45.24-25.83-19.72-44.27-41.76-54.11-67.28q-20.28-45.24-7.37-100.92C192.45,148.48,235.49,92.8,297,54.52,354.76,18.56,426.08,0,502.31,0h12.3C583.46,0,640,19.72,681.83,55.68c38.12,34.8,59,83.52,60.25,140.36L590.84,223.88c0-52.2-40.57-84.68-108.2-84.68h-12.3c-59,0-132.8,18.56-145.09,71.92-4.92,19.72-1.23,34.8,20.9,52.2,20.9,13.92,51.64,25.52,82.38,37.12L504.77,326c39.35,13.92,78.69,29,109.43,52.2,27.06,18.56,45.5,41.76,55.34,67.28,13.52,30.16,14.75,65,6.14,103.24-6.14,30.16-20.9,60.32-40.57,88.16-20.91,26.68-45.5,51-76.24,71.92-60.25,40.6-131.56,61.48-209,61.48H300.66c-68.86,0-126.65-22-168.46-62.64-35.66-37.12-56.56-88.16-56.56-143.84l151.24-29c0,47.56,32,96.28,104.52,96.28h49.18c41.81,0,79.92-10.44,107-29,22.13-15.08,36.88-33.64,40.57-53.36,4.92-20.88,2.46-37.12-22.13-54.52-23.36-17.4-59-30.16-97.14-42.92Z"/><path class="cls-1" d="M1083.91,371.2l126.65,387.44H1058.09L961,464,841.68,555.64l-45.5,203H660.93L831.84,0H967.1L882.25,377l218.87-168.2H1295.4Z"/><path class="cls-1" d="M1693.79,208.8h135.26l-123,549.84H1570.83l8.61-38.28c-11.07,5.8-22.13,11.6-34.43,16.24a308,308,0,0,1-114.35,22c-36.89,0-72.55-7-103.29-22a183.63,183.63,0,0,1-73.77-60.32c-39.35-51-51.65-119.48-35.66-192.56,16-71.92,60.25-140.36,121.73-192.56A367,367,0,0,1,1440.49,232c38.12-15.08,76.24-23.2,113.13-23.2,38.11,0,73.77,8.12,104.51,23.2,9.84,4.64,19.68,9.28,27,15.08Zm-61.48,274.92c18.45-81.2-29.51-147.32-107-147.32-76.24,0-153.7,66.12-172.15,147.32S1382.7,631,1458.94,631C1536.4,631,1613.87,564.92,1632.31,483.72Z"/><path class="cls-1" d="M2071.29,208.8h131.57L2179.5,313.2H2047.93L1905.56,950.63H1770.3L1912.67,313.2h-81.15l23.36-104.4H1936l7.38-32.48C1965.54,78.88,2067.6,0,2170.89,0c46.72,0,87.3,16.24,114.35,46.4l-111.89,94a46,46,0,0,0-32-12.76c-28.28,0-56.56,22-62.71,48.72Z"/><path class="cls-1" d="M2409.9,618.28l70.09,94c-40.58,30.16-88.53,46.4-135.26,46.4-103.28,0-169.68-78.88-147.55-176.32l60.25-269.12h-81.15l23.36-104.4h81.16l32-138L2464,0l-48,208.8h131.57l-23.36,104.4H2392.69l-60.25,269.12C2326.29,609,2344.73,631,2373,631,2385.31,631,2398.84,626.4,2409.9,618.28Z"/><path class="cls-1" d="M2625.83,208.8h135.25L2599.85,950.63H2464.6Zm168.45-145c-8.6,36-45.49,63.8-82.38,63.8S2650.42,99.76,2659,63.8C2666.41,29,2704.52,0,2741.41,0S2801.66,29,2794.28,63.8Z"/><path class="cls-1" d="M3287.34,453.56l-68.86,305.08H3083.23l68.86-305.08c13.52-63.8-29.51-117.16-98.37-117.16-67.63,0-135.26,53.36-148.78,117.16l-68.86,305.08H2700.82l68.86-305.08C2799.19,319,2939.37,208.8,3082,208.8S3316.85,319,3287.34,453.56Z"/><path class="cls-1" d="M253.3,1219.56c-33.2-12.76-63.94-26.68-89.76-45.24-25.82-19.72-44.27-41.76-54.11-67.28q-20.28-45.24-7.37-100.92c14.75-62.64,57.79-118.32,119.27-156.6,57.79-36,129.11-54.52,205.34-54.52H439c68.85,0,125.42,19.72,167.22,55.68,38.12,34.8,59,83.52,60.25,140.36L515.2,1018.88c0-52.2-40.57-84.68-108.2-84.68H394.7c-59,0-132.8,18.56-145.09,71.92-4.92,19.72-1.23,34.8,20.9,52.2,20.91,13.92,51.65,25.52,82.39,37.12L429.13,1121c39.35,13.92,78.69,29,109.43,52.2,27.06,18.56,45.5,41.76,55.34,67.28,13.52,30.16,14.75,65,6.14,103.24-6.14,30.16-20.9,60.32-40.57,88.16-20.91,26.68-45.5,51-76.24,71.92-60.25,40.6-131.56,61.48-209,61.48H225c-68.86,0-126.65-22-168.46-62.64C20.9,1465.48,0,1414.44,0,1358.76l151.24-29c0,47.56,32,96.28,104.52,96.28h49.18c41.81,0,79.92-10.44,107-29,22.13-15.08,36.88-33.64,40.57-53.36,4.92-20.88,2.46-37.12-22.13-54.52-23.36-17.4-59-30.16-97.14-42.92Z"/><path class="cls-1" d="M1198.86,1257.84l-14.76,63.8H773.42C778.33,1382,828.75,1426,898.84,1426c46.72,0,94.67-19.72,131.56-53.36l86.07,82.36c-70.08,62.64-159.84,98.6-245.92,98.6-77.46,0-145.09-29-188.12-80-43-52.2-57.8-121.8-41.81-194.88S703.33,1136,771,1085c65.17-52.2,145.09-81.2,222.55-81.2C1143.53,1003.8,1230.83,1112.84,1198.86,1257.84Zm-394.7-40.6h263.13c-3.69-52.2-41.81-85.84-102.06-85.84C902.52,1131.4,839.81,1167.36,804.16,1217.24Z"/><path class="cls-1" d="M1347.64,795h135.25L1312,1553.64H1176.72Z"/><path class="cls-1" d="M1976,1257.84l-14.76,63.8H1550.52c4.92,60.32,55.33,104.4,125.42,104.4,46.72,0,94.68-19.72,131.56-53.36l86.08,82.36c-70.09,62.64-159.85,98.6-245.92,98.6-77.47,0-145.1-29-188.13-80-43-52.2-57.79-121.8-41.81-194.88S1480.43,1136,1548.06,1085c65.17-52.2,145.09-81.2,222.56-81.2C1920.63,1003.8,2007.93,1112.84,1976,1257.84Zm-394.7-40.6h263.13c-3.69-52.2-41.8-85.84-102.05-85.84C1679.63,1131.4,1616.92,1167.36,1581.26,1217.24Z"/><path class="cls-1" d="M2391.58,1355.28l100.82,67.28a386.8,386.8,0,0,1-126.65,95.12c-47.95,23.2-100.82,36-151.24,36-77.46,0-145.09-29-189.35-80-41.81-52.2-56.57-121.8-40.58-194.88S2047.29,1136,2113.69,1085c66.39-52.2,146.32-81.2,223.78-81.2,50.42,0,98.37,12.76,136.49,37.12,38.12,22,65.17,55.68,82.38,95.12L2426,1202.16c-18.44-44.08-62.7-70.76-116.81-70.76-86.07,0-170.91,66.12-189.36,147.32s36.89,147.32,123,147.32C2296.9,1426,2353.46,1399.36,2391.58,1355.28Z"/><path class="cls-1" d="M2778.91,1413.28l70.09,94c-40.58,30.16-88.53,46.4-135.26,46.4-103.28,0-169.68-78.88-147.55-176.32l60.25-269.12h-81.15l23.36-104.4h81.15l32-138L2833,795l-48,208.8h131.57l-23.37,104.4H2761.7l-60.25,269.12C2695.3,1404,2713.74,1426,2742,1426,2754.32,1426,2767.85,1421.4,2778.91,1413.28Z"/><path class="cls-1" d="M3329.77,1298.44c12.3,24.36,16,53.36,8.61,85.84-13.52,59.16-54.1,107.88-111.89,136.88-43,22-95.91,32.48-154.93,32.48h-20.9c-153.7,0-205.35-73.08-209-81.2l121.73-80v-2.32c0,2.32,27.05,36,115.59,36h20.9c45.49,0,71.32-9.28,81.15-13.92,11.07-5.8,18.45-11.6,22.14-27.84,2.45-12.76,1.22-16.24-11.07-23.2-20.9-10.44-59-16.24-94.68-20.88-45.5-5.8-92.22-12.76-129.11-31.32-24.59-12.76-43-30.16-52.87-51-13.53-23.2-16-52.2-8.61-84.68,12.3-49.88,45.5-95.12,93.45-125.28,48-29,105.75-44.08,173.38-44.08h6.14c93.45,0,163.54,34.8,209,102.08l-121.73,81.2c-25.82-38.28-62.71-55.68-115.58-55.68h-6.15c-28.28,0-94.67,4.64-103.28,41.76-1.23,10.44-1.23,13.92,11.06,20.88,19.68,9.28,56.57,15.08,92.22,19.72,46.73,7,93.45,13.92,131.57,32.48C3301.49,1259,3319.94,1276.4,3329.77,1298.44Z"/><polygon class="cls-2" points="1846.8 125.93 1809.19 162.27 1779.51 125.93 1743.13 161.31 1712.05 125.93 1697.47 194.93 1832.22 194.93 1846.8 125.93"/><polygon class="cls-2" points="3213.09 789.13 3078.53 789.13 3066.93 839.57 3201.49 839.57 3213.09 789.13"/></g></g></svg>